<?xml version="1.0" encoding="UTF-8" standalone="no"?>
<!DOCTYPE svg PUBLIC "-//W3C//DTD SVG 1.1//EN" "http://www.w3.org/Graphics/SVG/1.1/DTD/svg11.dtd">
<svg width="100%" height="100%" viewBox="0 0 190 157" version="1.1" xmlns="http://www.w3.org/2000/svg" xmlns:xlink="http://www.w3.org/1999/xlink" xml:space="preserve" xmlns:serif="http://www.serif.com/" style="fill-rule:evenodd;clip-rule:evenodd;stroke-linejoin:round;stroke-miterlimit:2;">
    <g transform="matrix(1,0,0,1,0,-7396.58)">
        <g id="Artboard6" transform="matrix(0.111266,0,0,0.140966,207.171,6418.2)">
            <rect x="-1861.94" y="6940.5" width="1704.8" height="1109.48" style="fill:none;"/>
            <g transform="matrix(1.75262,0,0,1.42633,-1698.09,6904.99)">
                <path d="M633.85,116.951L166.15,116.951C74.388,116.951 0,191.338 0,283.1L0,516.901C0,608.663 74.388,683.051 166.15,683.051L633.85,683.051C725.612,683.051 800,608.663 800,516.901L800,283.1C800,191.338 725.612,116.951 633.85,116.951ZM521.484,411.376L302.726,515.711C296.897,518.491 290.163,514.241 290.163,507.784L290.163,292.593C290.163,286.044 297.074,281.799 302.915,284.759L521.673,395.616C528.178,398.911 528.065,408.239 521.484,411.376Z" style="fill:rgb(46,45,45);fill-rule:nonzero;"/>
            </g>
        </g>
        <g id="Testimonial">
        </g>
    </g>
</svg>
