<?xml version="1.0" encoding="UTF-8" standalone="no"?>
<!DOCTYPE svg PUBLIC "-//W3C//DTD SVG 1.1//EN" "http://www.w3.org/Graphics/SVG/1.1/DTD/svg11.dtd">
<svg width="100%" height="100%" viewBox="0 0 123 126" version="1.1" xmlns="http://www.w3.org/2000/svg" xmlns:xlink="http://www.w3.org/1999/xlink" xml:space="preserve" xmlns:serif="http://www.serif.com/" style="fill-rule:evenodd;clip-rule:evenodd;stroke-linejoin:round;stroke-miterlimit:2;">
    <g transform="matrix(1,0,0,1,-2.84217e-14,-7427.16)">
        <g id="Artboard6" transform="matrix(0.072126,0,0,0.113401,134.294,6640.1)">
            <rect x="-1861.94" y="6940.5" width="1704.8" height="1109.48" style="fill:none;"/>
            <g id="Vector" transform="matrix(40.7783,0,0,25.936,-44048.7,-103145)">
                <path d="M1059.92,4252.64L1063,4252.64L1063,4247.24C1061.51,4247.08 1060.01,4247 1058.52,4247C1054.07,4247 1051.02,4249.82 1051.02,4254.99L1051.02,4259.44L1046,4259.44L1046,4265.5L1051.02,4265.5L1051.02,4281L1057.04,4281L1057.04,4265.5L1062.05,4265.5L1062.8,4259.44L1057.04,4259.44L1057.04,4255.59C1057.04,4253.8 1057.5,4252.64 1059.92,4252.64Z" style="fill:rgb(46,45,45);fill-rule:nonzero;"/>
            </g>
        </g>
        <g id="Testimonial">
        </g>
    </g>
</svg>
