<?xml version="1.0" encoding="UTF-8" standalone="no"?>
<!DOCTYPE svg PUBLIC "-//W3C//DTD SVG 1.1//EN" "http://www.w3.org/Graphics/SVG/1.1/DTD/svg11.dtd">
<svg width="100%" height="100%" viewBox="0 0 148 126" version="1.1" xmlns="http://www.w3.org/2000/svg" xmlns:xlink="http://www.w3.org/1999/xlink" xml:space="preserve" xmlns:serif="http://www.serif.com/" style="fill-rule:evenodd;clip-rule:evenodd;stroke-linejoin:round;stroke-miterlimit:2;">
    <g transform="matrix(1,0,0,1,0,-7427.16)">
        <g id="Artboard6" transform="matrix(0.0867883,0,0,0.113401,161.594,6640.1)">
            <rect x="-1861.94" y="6940.5" width="1704.8" height="1109.48" style="fill:none;"/>
            <g id="Vector" transform="matrix(31.0553,0,0,23.7673,-25755.5,-93860.7)">
                <path d="M778.113,4271.02C778.038,4269.72 778,4267.38 778,4264C778,4260.62 778.038,4258.28 778.113,4256.98C778.106,4256.84 778.1,4256.67 778.1,4256.51C778.1,4251.31 782.312,4247.1 787.506,4247.1C787.666,4247.1 787.826,4247.11 787.984,4247.11C789.283,4247.04 791.621,4247 795,4247C798.379,4247 800.717,4247.04 802.016,4247.11C802.159,4247.11 802.326,4247.1 802.493,4247.1C807.687,4247.1 811.898,4251.31 811.898,4256.51C811.898,4256.67 811.894,4256.83 811.886,4256.98C811.962,4258.28 812,4260.62 812,4264C812,4267.38 811.962,4269.72 811.887,4271.02C811.894,4271.16 811.899,4271.33 811.899,4271.49C811.899,4276.69 807.688,4280.9 802.494,4280.9C802.333,4280.9 802.174,4280.89 802.016,4280.89C800.717,4280.96 798.379,4281 795,4281C791.621,4281 789.283,4280.96 787.984,4280.89C787.841,4280.89 787.674,4280.9 787.507,4280.9C782.313,4280.9 778.102,4276.69 778.102,4271.49C778.102,4271.33 778.106,4271.17 778.113,4271.02ZM795.013,4250.05L793.32,4250.04C792.295,4250.03 791.516,4250.03 790.984,4250.04C790.453,4250.05 789.741,4250.07 788.848,4250.11C788.02,4250.14 787.234,4250.22 786.465,4250.35L786.568,4250.34C785.966,4250.44 785.432,4250.58 784.921,4250.77L784.981,4250.74C783.503,4251.35 782.351,4252.5 781.763,4253.94L781.749,4253.98C781.581,4254.43 781.439,4254.96 781.347,4255.51L781.34,4255.56C781.224,4256.23 781.142,4257.01 781.115,4257.81L781.113,4257.84C781.076,4258.74 781.054,4259.45 781.047,4259.98C781.039,4260.51 781.039,4261.29 781.047,4262.31C781.054,4263.34 781.058,4263.9 781.058,4264.01C781.058,4264.11 781.054,4264.67 781.047,4265.7C781.039,4266.73 781.039,4267.5 781.047,4268.03C781.054,4268.57 781.076,4269.28 781.113,4270.17C781.142,4271 781.224,4271.79 781.354,4272.56L781.34,4272.45C781.439,4273.05 781.581,4273.59 781.769,4274.1L781.749,4274.04C782.351,4275.52 783.501,4276.67 784.942,4277.26L784.98,4277.27C785.431,4277.44 785.965,4277.58 786.514,4277.67L786.566,4277.68C787.231,4277.8 788.017,4277.88 788.816,4277.9L788.846,4277.91C789.739,4277.94 790.451,4277.97 790.981,4277.97C791.512,4277.98 792.291,4277.98 793.317,4277.97L795,4277.94L796.693,4277.95C797.718,4277.96 798.497,4277.96 799.028,4277.95C799.56,4277.94 800.272,4277.92 801.164,4277.88C801.993,4277.86 802.779,4277.77 803.548,4277.64L803.445,4277.66C804.047,4277.56 804.581,4277.42 805.092,4277.23L805.031,4277.25C806.51,4276.65 807.661,4275.5 808.249,4274.06L808.263,4274.02C808.432,4273.57 808.574,4273.03 808.666,4272.48L808.673,4272.43C808.789,4271.77 808.871,4270.98 808.898,4270.18L808.899,4270.15C808.936,4269.26 808.958,4268.55 808.966,4268.02C808.974,4267.48 808.974,4266.71 808.966,4265.68C808.958,4264.65 808.955,4264.09 808.955,4263.99C808.955,4263.89 808.958,4263.32 808.966,4262.29C808.974,4261.27 808.974,4260.49 808.966,4259.96C808.958,4259.43 808.936,4258.72 808.899,4257.82C808.871,4256.99 808.789,4256.21 808.659,4255.44L808.673,4255.54C808.574,4254.94 808.432,4254.41 808.244,4253.9L808.263,4253.96C807.661,4252.48 806.511,4251.32 805.071,4250.74L805.032,4250.72C804.582,4250.56 804.048,4250.41 803.498,4250.32L803.446,4250.31C802.782,4250.2 801.996,4250.12 801.197,4250.09L801.167,4250.09C800.274,4250.05 799.562,4250.03 799.031,4250.02C798.5,4250.01 797.722,4250.01 796.695,4250.02L795.013,4250.05ZM803.728,4264.01C803.707,4268.79 799.825,4272.66 795.038,4272.66C790.239,4272.66 786.348,4268.77 786.348,4263.97C786.348,4259.17 790.239,4255.28 795.038,4255.28C797.438,4255.28 799.61,4256.25 801.183,4257.83C802.753,4259.36 803.729,4261.49 803.729,4263.85C803.729,4263.9 803.729,4263.95 803.728,4264L803.728,4264.01ZM800.668,4264C800.668,4260.87 798.132,4258.33 795.003,4258.33C791.874,4258.33 789.337,4260.87 789.337,4264C789.337,4267.13 791.874,4269.66 795.003,4269.66C796.566,4269.66 797.983,4269.03 799.008,4268.01C800.032,4267.01 800.668,4265.62 800.668,4264.09C800.668,4264.06 800.668,4264.02 800.667,4264L800.668,4264ZM806.118,4254.93L806.118,4254.93C806.118,4256.06 805.204,4256.97 804.078,4256.97C802.952,4256.97 802.038,4256.06 802.038,4254.93C802.038,4253.8 802.952,4252.89 804.078,4252.89C804.642,4252.89 805.151,4253.12 805.52,4253.49C805.882,4253.84 806.108,4254.34 806.108,4254.89L806.108,4254.93L806.118,4254.93Z" style="fill:rgb(46,45,45);"/>
            </g>
        </g>
        <g id="Testimonial">
        </g>
    </g>
</svg>
