<?xml version="1.0" encoding="UTF-8" standalone="no"?>
<!DOCTYPE svg PUBLIC "-//W3C//DTD SVG 1.1//EN" "http://www.w3.org/Graphics/SVG/1.1/DTD/svg11.dtd">
<svg width="100%" height="100%" viewBox="0 0 148 126" version="1.1" xmlns="http://www.w3.org/2000/svg" xmlns:xlink="http://www.w3.org/1999/xlink" xml:space="preserve" xmlns:serif="http://www.serif.com/" style="fill-rule:evenodd;clip-rule:evenodd;stroke-linejoin:round;stroke-miterlimit:2;">
    <g transform="matrix(1,0,0,1,0,-7427.16)">
        <g id="Artboard6" transform="matrix(0.0867883,0,0,0.113401,161.594,6640.1)">
            <rect x="-1861.94" y="6940.5" width="1704.8" height="1109.48" style="fill:none;"/>
            <g id="Vector" transform="matrix(28.8224,0,0,22.3261,-29104.6,-87764.3)">
                <path d="M963.956,4258.05L963.956,4281L956.438,4281L956.438,4258.05L963.956,4258.05ZM956.001,4250.96C956,4250.93 956,4250.9 956,4250.86C956,4249.79 956.451,4248.81 957.172,4248.13L957.175,4248.13C957.933,4247.43 958.946,4247 960.057,4247C960.118,4247 960.178,4247 960.239,4247L960.247,4247C960.305,4247 960.371,4247 960.438,4247C961.531,4247 962.526,4247.43 963.27,4248.13L963.273,4248.13C963.989,4248.83 964.434,4249.82 964.434,4250.91L964.434,4250.97L964.434,4250.97C964.435,4251.01 964.436,4251.05 964.436,4251.1C964.436,4252.16 963.993,4253.12 963.285,4253.79L963.283,4253.79C962.523,4254.49 961.507,4254.92 960.391,4254.92C960.326,4254.92 960.26,4254.92 960.194,4254.92L960.185,4254.92L960.149,4254.92C960.091,4254.92 960.024,4254.92 959.958,4254.92C958.866,4254.92 957.874,4254.49 957.137,4253.79L957.136,4253.79C956.434,4253.1 956,4252.13 956,4251.06C956,4251.03 956,4251 956.001,4250.96L956.001,4250.96ZM975.596,4268.2L975.596,4281L968.101,4281C968.132,4274.84 968.147,4269.85 968.147,4266.02C968.147,4262.19 968.14,4259.9 968.125,4259.16L968.103,4258.05L975.597,4258.05L975.597,4261.31C975.878,4260.86 976.168,4260.46 976.485,4260.09C976.487,4260.09 976.494,4260.08 976.496,4260.08C976.884,4259.64 977.302,4259.25 977.75,4258.9L977.773,4258.89C978.336,4258.44 978.996,4258.1 979.712,4257.89L979.754,4257.88C980.504,4257.65 981.366,4257.52 982.258,4257.52L982.363,4257.52L982.368,4257.52C982.466,4257.51 982.58,4257.51 982.693,4257.51C985.036,4257.51 987.145,4258.52 988.624,4260.14L988.628,4260.15C990.209,4261.9 991,4264.47 991,4267.85L990.997,4267.85L990.997,4281L983.503,4281L983.503,4268.72C983.51,4268.61 983.512,4268.48 983.512,4268.35C983.512,4267.09 983.172,4265.92 982.579,4264.91C981.984,4264.07 981.022,4263.53 979.937,4263.53C979.857,4263.53 979.777,4263.53 979.697,4263.54C979.695,4263.54 979.688,4263.54 979.686,4263.54C979.651,4263.54 979.612,4263.53 979.573,4263.53C978.713,4263.53 977.921,4263.84 977.294,4264.34C977.293,4264.34 977.288,4264.34 977.286,4264.34C976.659,4264.86 976.167,4265.52 975.856,4266.28L975.845,4266.32C975.684,4266.82 975.592,4267.4 975.592,4268C975.592,4268.06 975.593,4268.13 975.596,4268.19C975.596,4268.19 975.596,4268.2 975.596,4268.2Z" style="fill:rgb(46,45,45);"/>
            </g>
        </g>
        <g id="Testimonial">
        </g>
    </g>
</svg>
